# xmcd
#
# Track frame offsets:
#	150
#	15015
#	27260
#	43200
#	70938
#	84409
#	96681
#	110486
#	125048
#	147546
#	160737
#	174293
#	192439
#
# Disc length: 2775 seconds
#
# Revision: 0
# Processed by: cddbd v1.5.1PL0 Copyright (c) Steve Scherf et al.
# Submitted via: dBpowerAMP V4.0
#
DISCID=b10ad50d
DTITLE=Thulio e Thiago - Ao vivo
DYEAR=2004
DGENRE=Country
TTITLE0=Argentina
TTITLE1=Amor pra vida inteira
TTITLE2=Onde é que voce esta
TTITLE3=Amor de madrugada
TTITLE4=Vai Vai
TTITLE5=Fui aparpa
TTITLE6=Com todos com menos comigo
TTITLE7=Pra que eu te esqueça
TTITLE8=E do jeito que tiver que ser
TTITLE9=No cecular
TTITLE10=Agente nao se liga
TTITLE11=Pra que ficar sozinho
TTITLE12=Voce nao liga
EXTD=Ao vivo
EXTT0=
EXTT1=
EXTT2=
EXTT3=
EXTT4=
EXTT5=
EXTT6=
EXTT7=
EXTT8=
EXTT9=
EXTT10=
EXTT11=
EXTT12=
PLAYORDER=
